<?xml version="1.0" encoding="utf-8"?>
<!-- Generator: Adobe Illustrator 27.9.4, SVG Export Plug-In . SVG Version: 9.03 Build 54784)  -->
<svg version="1.1" id="Camada_1" xmlns="http://www.w3.org/2000/svg" xmlns:xlink="http://www.w3.org/1999/xlink" x="0px" y="0px"
	 viewBox="0 0 2000 196.7" style="enable-background:new 0 0 2000 196.7;" xml:space="preserve">
<style type="text/css">
	.Sombra{fill:none;}
	._x0035__x0020_pontos_x0020__x002D__x0020_Brilho_x0020_externo{fill:none;}
	.Jive_GS{fill:#A6D0E4;}
	.st0{fill:#FFFFFF;}
	.st1{fill:#8463FD;}
	.st2{fill:#02D97C;}
</style>
<g>
	<g>
		<path class="st0" d="M230.8,77.8c0,5.5,4.4,9.9,9.9,9.9h33.9c13.3,0,24,10.8,24,24s-10.8,24-24,24h-58v-14.1h58
			c5.5,0,9.9-4.4,9.9-9.9c0-5.5-4.4-9.9-9.9-9.9h-33.9c-13.3,0-24-10.8-24-24s10.8-24,24-24h56.6v14.1h-56.6
			C235.2,67.9,230.8,72.3,230.8,77.8z"/>
	</g>
	<g>
		<path class="st0" d="M372.7,53.7h-58v14.1h58c5.5,0,9.9,4.4,9.9,9.9v9.9h-54.6c-7.3,0-13.3,6-13.3,13.3v21.4
			c0,7.3,6,13.3,13.3,13.3h44.7c13.3,0,24-10.8,24-24V77.8C396.8,64.5,386,53.7,372.7,53.7z M372.7,121.6h-43.8v-19.8h53.7v9.9
			C382.6,117.2,378.2,121.6,372.7,121.6z"/>
	</g>
	<g>
		<path class="st0" d="M416.2,135.7V0h14.1v135.7H416.2z"/>
	</g>
	<g>
		<path class="st0" d="M518.4,101.8c7.3,0,13.3-6,13.3-13.3V67.1c0-7.3-6-13.3-13.3-13.3h-44.7c-13.3,0-24,10.8-24,24v33.9
			c0,13.3,10.8,24,24,24h58v-14.1h-58c-5.5,0-9.9-4.4-9.9-9.9v-9.9H518.4z M473.7,67.9h43.8v19.8h-53.7v-9.9
			C463.8,72.3,468.2,67.9,473.7,67.9z"/>
	</g>
	<g>
		<path class="st0" d="M562.7,77.8c0,5.5,4.4,9.9,9.9,9.9h33.9c13.3,0,24,10.8,24,24s-10.8,24-24,24h-58.4v-14.1h58.4
			c5.5,0,9.9-4.4,9.9-9.9c0-5.5-4.4-9.9-9.9-9.9h-33.9c-13.3,0-24-10.8-24-24s10.8-24,24-24h58v14.1h-58
			C567.2,67.9,562.7,72.3,562.7,77.8z"/>
	</g>
	<g>
		<path class="st0" d="M679,51.9h14.1v120.8c0,13.3-10.8,24-24,24h-20.3v-14.1h20.3c5.5,0,9.9-4.4,9.9-9.9V51.9z"/>
	</g>
	<g>
		<path class="st0" d="M794.7,77.8v33.9c0,13.3-10.8,24-24,24h-33.9c-13.3,0-24-10.8-24-24V77.8c0-13.3,10.8-24,24-24h33.9
			C783.9,53.7,794.7,64.5,794.7,77.8z M780.5,77.8c0-5.5-4.4-9.9-9.9-9.9h-33.9c-5.5,0-9.9,4.4-9.9,9.9v33.9c0,5.5,4.4,9.9,9.9,9.9
			h33.9c5.5,0,9.9-4.4,9.9-9.9V77.8z"/>
	</g>
	<g>
		<path class="st0" d="M895.2,53.7v58c0,13.3-10.8,24-24,24h-33.9c-13.3,0-24-10.8-24-24v-58h14.1v58c0,5.5,4.4,9.9,9.9,9.9h33.9
			c5.5,0,9.9-4.4,9.9-9.9v-58H895.2z"/>
	</g>
	<g>
		<path class="st0" d="M983.8,52.8v14.1h-45.1c-5.5,0-9.9,4.4-9.9,9.9v58.9h-14.1V76.8c0-13.3,10.8-24,24-24H983.8z"/>
	</g>
	<g>
		<path class="st0" d="M1076.7,77.8v58h-14.1v-58c0-5.5-4.4-9.9-9.9-9.9h-33.9c-5.5,0-9.9,4.4-9.9,9.9v58h-14.1v-58
			c0-13.3,10.8-24,24-24h33.9C1066,53.7,1076.7,64.5,1076.7,77.8z"/>
	</g>
	<g>
		<path class="st0" d="M1163.9,101.8c7.3,0,13.3-6,13.3-13.3V67.1c0-7.3-6-13.3-13.3-13.3h-44.7c-13.3,0-24,10.8-24,24v33.9
			c0,13.3,10.8,24,24,24h58v-14.1h-58c-5.5,0-9.9-4.4-9.9-9.9v-9.9H1163.9z M1119.3,67.9h43.8v19.8h-53.7v-9.9
			C1109.4,72.3,1113.8,67.9,1119.3,67.9z"/>
	</g>
	<g>
		<path class="st0" d="M1263.5,53.7v35.5c0,5.5-4.4,9.9-9.9,9.9h-33.9c-5.5,0-9.9-4.4-9.9-9.9V53.7h-14.1v35.5c0,13.3,10.8,24,24,24
			h9.9v24.3h14.1v-24.3h9.9c13.3,0,24-10.8,24-24V53.7H1263.5z"/>
	</g>
	<g>
		<rect x="679" y="23.5" class="st0" width="14.1" height="18.4"/>
	</g>
	<g>
		<g>
			<path class="st1" d="M97.3,21.8c-4.8,7.4-7.7,16.2-7.8,25.6c-25,5.9-50.4,10.3-76.1,13.2l-11-18.8C-4.6,30,4.6,15.3,18.2,16.2
				L97.3,21.8z"/>
		</g>
		<g>
			<path class="st1" d="M108.9,86.7c-24.1,5.6-48.6,9.5-73.3,11.7l-16.5-28c24.1-2.9,47.9-7.1,71.3-12.6
				C92.8,69.6,99.6,79.8,108.9,86.7z"/>
		</g>
		<g>
			<g>
				<path class="st1" d="M134.6,96l-14.9,31.9c-20.4,4.2-41.2,6.8-62.1,7.7L41.3,108c27.5-2.6,54.8-7.4,81.4-14.2
					C126.5,95,130.4,95.8,134.6,96z"/>
			</g>
			<g>
				<path class="st1" d="M63.3,145.5l10.4,17.8c6.9,11.8,24.2,11,30-1.4l10.6-22.6C97.5,142.4,80.4,144.4,63.3,145.5z"/>
			</g>
		</g>
	</g>
	<g>
		<circle class="st2" cx="138" cy="48.3" r="39.9"/>
	</g>
	<g>
		<g>
			<path class="st0" d="M130.4,71c-0.2,0-0.4,0-0.7-0.1c-1-0.4-1.4-1.4-1.1-2.4l15.8-41.8c0.4-1,1.4-1.4,2.4-1.1
				c1,0.4,1.4,1.4,1.1,2.4l-15.8,41.8C131.8,70.6,131.1,71,130.4,71z"/>
		</g>
		<g>
			<path class="st0" d="M149.8,60.2c-0.6,0-1.1-0.3-1.5-0.7c-0.6-0.8-0.4-2,0.4-2.6l11.4-8.5l-11.4-8.5c-0.8-0.6-1-1.8-0.4-2.6
				c0.6-0.8,1.8-1,2.6-0.4l13.4,10c0.5,0.3,0.7,0.9,0.7,1.5s-0.3,1.1-0.7,1.5l-13.4,10C150.6,60.1,150.2,60.2,149.8,60.2z"/>
		</g>
		<g>
			<path class="st0" d="M127.2,60.2c-0.4,0-0.7-0.1-1.1-0.3l-14.5-10c-0.5-0.3-0.8-0.9-0.8-1.5s0.3-1.2,0.8-1.5l14.5-10
				c0.8-0.6,2-0.4,2.6,0.5c0.6,0.8,0.4,2-0.5,2.6L116,48.3l12.3,8.5c0.8,0.6,1.1,1.7,0.5,2.6C128.4,59.9,127.8,60.2,127.2,60.2z"/>
		</g>
	</g>
</g>
<g>
	<path class="st0" d="M1398,107.8c0,5.1-0.8,9.6-2.4,13.4c-1.6,3.8-3.8,6.9-6.7,9.4c-2.9,2.5-6.4,4.3-10.4,5.5
		c-4,1.2-8.5,1.8-13.3,1.8c-2.4,0-5-0.1-7.9-0.3c-2.9-0.2-5.5-0.6-7.8-1.2V79.2c2.3-0.6,4.9-1,7.8-1.2c2.9-0.2,5.5-0.3,7.9-0.3
		c4.8,0,9.3,0.6,13.3,1.8c4,1.2,7.5,3.1,10.4,5.5c2.9,2.5,5.2,5.6,6.7,9.4C1397.2,98.3,1398,102.7,1398,107.8z M1365.8,130.7
		c7.9,0,13.7-2,17.6-6c3.9-4,5.8-9.6,5.8-16.9s-1.9-12.8-5.8-16.9c-3.9-4-9.7-6-17.6-6c-2.3,0-4.1,0-5.4,0.1
		c-1.3,0.1-2.2,0.1-2.7,0.2v45.2c0.5,0.1,1.4,0.1,2.7,0.2C1361.7,130.7,1363.5,130.7,1365.8,130.7z"/>
	<path class="st0" d="M1407.3,115.3c0-3.9,0.6-7.4,1.7-10.3c1.1-2.9,2.6-5.4,4.5-7.3c1.9-1.9,4-3.4,6.5-4.4c2.4-1,5-1.5,7.5-1.5
		c6,0,10.6,1.9,13.7,5.6c3.2,3.7,4.8,9.4,4.8,17c0,0.3,0,0.8,0,1.3c0,0.5,0,1-0.1,1.5h-30.4c0.3,4.6,1.7,8.1,4,10.5
		c2.3,2.4,6,3.6,10.9,3.6c2.8,0,5.1-0.2,7-0.7c1.9-0.5,3.3-1,4.3-1.4l1.1,6.7c-1,0.5-2.7,1.1-5.1,1.6c-2.4,0.6-5.2,0.9-8.2,0.9
		c-3.9,0-7.2-0.6-10-1.8c-2.8-1.2-5.1-2.8-7-4.8c-1.8-2-3.2-4.5-4.1-7.3C1407.8,121.8,1407.3,118.7,1407.3,115.3z M1437.8,111
		c0.1-3.6-0.8-6.5-2.7-8.8c-1.8-2.3-4.4-3.5-7.6-3.5c-1.8,0-3.4,0.4-4.8,1.1c-1.4,0.7-2.6,1.6-3.5,2.8c-1,1.1-1.7,2.4-2.3,3.9
		c-0.5,1.5-0.9,3-1.1,4.5H1437.8z"/>
	<path class="st0" d="M1492.2,93.1c-2.2,8.3-4.8,16.3-7.8,23.9c-3,7.6-5.9,14.5-8.7,20.5h-7.2c-2.8-6-5.7-12.9-8.7-20.5
		c-3-7.6-5.6-15.6-7.8-23.9h8.5c0.7,2.8,1.5,5.8,2.4,8.9c0.9,3.2,1.9,6.3,3,9.4c1.1,3.1,2.1,6.1,3.2,9c1.1,2.9,2.1,5.5,3.1,7.8
		c1-2.3,2-4.9,3.1-7.8s2.1-5.9,3.2-9c1.1-3.1,2-6.2,3-9.4c0.9-3.2,1.8-6.1,2.4-8.9H1492.2z"/>
	<path class="st0" d="M1496.7,115.3c0-3.9,0.6-7.4,1.7-10.3c1.1-2.9,2.6-5.4,4.5-7.3c1.9-1.9,4-3.4,6.5-4.4c2.4-1,5-1.5,7.5-1.5
		c6,0,10.6,1.9,13.7,5.6c3.2,3.7,4.8,9.4,4.8,17c0,0.3,0,0.8,0,1.3c0,0.5,0,1-0.1,1.5H1505c0.3,4.6,1.7,8.1,4,10.5
		c2.3,2.4,6,3.6,10.9,3.6c2.8,0,5.1-0.2,7-0.7c1.9-0.5,3.3-1,4.3-1.4l1.1,6.7c-1,0.5-2.7,1.1-5.1,1.6c-2.4,0.6-5.2,0.9-8.2,0.9
		c-3.9,0-7.2-0.6-10-1.8c-2.8-1.2-5.1-2.8-7-4.8c-1.8-2-3.2-4.5-4.1-7.3C1497.1,121.8,1496.7,118.7,1496.7,115.3z M1527.2,111
		c0.1-3.6-0.8-6.5-2.7-8.8c-1.8-2.3-4.4-3.5-7.6-3.5c-1.8,0-3.4,0.4-4.8,1.1c-1.4,0.7-2.6,1.6-3.5,2.8c-1,1.1-1.7,2.4-2.3,3.9
		c-0.5,1.5-0.9,3-1.1,4.5H1527.2z"/>
	<path class="st0" d="M1560.2,138.3c-4.9-0.1-8.4-1.2-10.4-3.2c-2-2-3.1-5.1-3.1-9.3V72.6l7.9-1.4v53.4c0,1.3,0.1,2.4,0.3,3.2
		c0.2,0.9,0.6,1.5,1.1,2c0.5,0.5,1.2,0.9,2,1.2c0.9,0.3,1.9,0.5,3.2,0.6L1560.2,138.3z"/>
	<path class="st0" d="M1609.4,115.3c0,3.5-0.5,6.7-1.5,9.6c-1,2.8-2.5,5.3-4.3,7.3c-1.8,2-4.1,3.6-6.6,4.7c-2.6,1.1-5.3,1.7-8.4,1.7
		c-3,0-5.8-0.6-8.4-1.7c-2.6-1.1-4.8-2.7-6.6-4.7c-1.9-2-3.3-4.5-4.3-7.3c-1-2.8-1.5-6-1.5-9.6c0-3.5,0.5-6.6,1.5-9.5
		c1-2.9,2.5-5.3,4.3-7.4c1.8-2,4.1-3.6,6.6-4.7c2.6-1.1,5.3-1.7,8.4-1.7c3,0,5.8,0.6,8.4,1.7c2.6,1.1,4.8,2.7,6.6,4.7
		c1.8,2,3.3,4.5,4.3,7.4C1608.9,108.6,1609.4,111.8,1609.4,115.3z M1601.1,115.3c0-5-1.1-9-3.4-11.9c-2.2-2.9-5.3-4.4-9.2-4.4
		c-3.9,0-6.9,1.5-9.2,4.4c-2.2,2.9-3.4,6.9-3.4,11.9s1.1,9,3.4,11.9c2.2,2.9,5.3,4.4,9.2,4.4c3.9,0,6.9-1.5,9.2-4.4
		C1600,124.2,1601.1,120.3,1601.1,115.3z"/>
	<path class="st0" d="M1659.7,115.3c0,3.4-0.4,6.5-1.3,9.3c-0.9,2.8-2.2,5.3-3.9,7.3c-1.7,2-3.8,3.6-6.3,4.8s-5.3,1.7-8.5,1.7
		c-2.6,0-4.8-0.3-6.8-1c-2-0.7-3.4-1.3-4.4-2v17.8h-7.9V94.4c1.9-0.5,4.2-1,7-1.5c2.8-0.5,6.1-0.8,9.8-0.8c3.4,0,6.5,0.5,9.2,1.6
		c2.7,1.1,5.1,2.6,7,4.6c1.9,2,3.4,4.4,4.5,7.3C1659.1,108.5,1659.7,111.8,1659.7,115.3z M1651.4,115.3c0-5.2-1.3-9.2-3.8-12
		c-2.6-2.8-6-4.2-10.2-4.2c-2.4,0-4.3,0.1-5.6,0.3c-1.3,0.2-2.4,0.4-3.2,0.6v28c1,0.8,2.4,1.6,4.2,2.3c1.8,0.7,3.8,1.1,6,1.1
		c2.3,0,4.2-0.4,5.8-1.2c1.6-0.8,2.9-2,4-3.4c1-1.5,1.8-3.2,2.2-5.1C1651.2,119.7,1651.4,117.6,1651.4,115.3z"/>
	<path class="st0" d="M1668.4,115.3c0-3.9,0.6-7.4,1.7-10.3c1.1-2.9,2.6-5.4,4.5-7.3c1.9-1.9,4-3.4,6.5-4.4c2.4-1,5-1.5,7.5-1.5
		c6,0,10.6,1.9,13.7,5.6c3.2,3.7,4.8,9.4,4.8,17c0,0.3,0,0.8,0,1.3c0,0.5,0,1-0.1,1.5h-30.4c0.3,4.6,1.7,8.1,4,10.5
		c2.3,2.4,6,3.6,10.9,3.6c2.8,0,5.1-0.2,7-0.7c1.9-0.5,3.3-1,4.3-1.4l1.1,6.7c-1,0.5-2.7,1.1-5.1,1.6c-2.4,0.6-5.2,0.9-8.2,0.9
		c-3.9,0-7.2-0.6-10-1.8c-2.8-1.2-5.1-2.8-7-4.8c-1.8-2-3.2-4.5-4.1-7.3C1668.8,121.8,1668.4,118.7,1668.4,115.3z M1698.8,111
		c0.1-3.6-0.8-6.5-2.7-8.8c-1.8-2.3-4.4-3.5-7.6-3.5c-1.8,0-3.4,0.4-4.8,1.1c-1.4,0.7-2.6,1.6-3.5,2.8c-1,1.1-1.7,2.4-2.3,3.9
		c-0.5,1.5-0.9,3-1.1,4.5H1698.8z"/>
	<path class="st0" d="M1734.9,92.1c0.7,0,1.5,0,2.3,0.1c0.9,0.1,1.8,0.2,2.6,0.3c0.9,0.1,1.6,0.3,2.3,0.4c0.7,0.1,1.2,0.3,1.6,0.4
		l-1.4,6.9c-0.6-0.2-1.7-0.5-3.1-0.8c-1.5-0.3-3.3-0.5-5.6-0.5c-1.5,0-2.9,0.2-4.4,0.5c-1.5,0.3-2.4,0.5-2.9,0.6v37.3h-7.9V94.9
		c1.9-0.7,4.2-1.3,7-1.9C1728.3,92.4,1731.5,92.1,1734.9,92.1z"/>
	<path class="st0" d="M1787.4,77.7c8.3,0,14.7,1.6,19.2,4.7c4.5,3.2,6.7,7.9,6.7,14.1c0,3.4-0.6,6.3-1.8,8.8c-1.2,2.4-3,4.4-5.3,5.9
		c-2.3,1.5-5.1,2.6-8.4,3.3c-3.3,0.7-7,1-11.2,1h-6.6v21.9h-8.3V79.2c2.3-0.6,4.9-1,7.8-1.2C1782.4,77.8,1785.1,77.7,1787.4,77.7z
		 M1788.1,85c-3.5,0-6.2,0.1-8.1,0.3v23.2h6.2c2.8,0,5.4-0.2,7.7-0.6c2.3-0.4,4.2-1,5.8-1.9c1.6-0.9,2.8-2.1,3.6-3.6
		c0.9-1.5,1.3-3.5,1.3-5.9c0-2.3-0.4-4.2-1.3-5.6c-0.9-1.5-2.1-2.7-3.6-3.5c-1.5-0.9-3.3-1.5-5.2-1.8
		C1792.5,85.1,1790.3,85,1788.1,85z"/>
	<path class="st0" d="M1860.5,115.3c0,3.5-0.5,6.7-1.5,9.6c-1,2.8-2.5,5.3-4.3,7.3c-1.8,2-4.1,3.6-6.6,4.7c-2.6,1.1-5.3,1.7-8.4,1.7
		c-3,0-5.8-0.6-8.4-1.7c-2.6-1.1-4.8-2.7-6.6-4.7c-1.9-2-3.3-4.5-4.3-7.3c-1-2.8-1.5-6-1.5-9.6c0-3.5,0.5-6.6,1.5-9.5
		c1-2.9,2.5-5.3,4.3-7.4c1.8-2,4.1-3.6,6.6-4.7c2.6-1.1,5.3-1.7,8.4-1.7c3,0,5.8,0.6,8.4,1.7c2.6,1.1,4.8,2.7,6.6,4.7
		c1.8,2,3.3,4.5,4.3,7.4C1860,108.6,1860.5,111.8,1860.5,115.3z M1852.2,115.3c0-5-1.1-9-3.4-11.9c-2.2-2.9-5.3-4.4-9.2-4.4
		c-3.9,0-6.9,1.5-9.2,4.4c-2.2,2.9-3.4,6.9-3.4,11.9s1.1,9,3.4,11.9c2.2,2.9,5.3,4.4,9.2,4.4c3.9,0,6.9-1.5,9.2-4.4
		C1851.1,124.2,1852.2,120.3,1852.2,115.3z"/>
	<path class="st0" d="M1888.1,92.1c0.7,0,1.5,0,2.3,0.1c0.9,0.1,1.8,0.2,2.6,0.3c0.9,0.1,1.6,0.3,2.3,0.4c0.7,0.1,1.2,0.3,1.6,0.4
		l-1.4,6.9c-0.6-0.2-1.7-0.5-3.1-0.8c-1.5-0.3-3.3-0.5-5.6-0.5c-1.5,0-2.9,0.2-4.4,0.5c-1.5,0.3-2.4,0.5-2.9,0.6v37.3h-7.9V94.9
		c1.9-0.7,4.2-1.3,7-1.9C1881.5,92.4,1884.6,92.1,1888.1,92.1z"/>
	<path class="st0" d="M1912.1,93.1h16.8v6.7h-16.8v20.5c0,2.2,0.2,4.1,0.5,5.5c0.3,1.5,0.9,2.6,1.5,3.4c0.7,0.8,1.5,1.4,2.6,1.8
		c1,0.3,2.2,0.5,3.6,0.5c2.4,0,4.3-0.3,5.8-0.8c1.5-0.5,2.5-0.9,3-1.2l1.5,6.6c-0.8,0.4-2.2,0.9-4.2,1.5s-4.3,0.9-6.8,0.9
		c-3,0-5.5-0.4-7.5-1.2c-2-0.8-3.5-1.9-4.7-3.5c-1.2-1.5-2-3.4-2.5-5.7c-0.5-2.2-0.7-4.9-0.7-7.8V80.7l7.9-1.4V93.1z"/>
	<path class="st0" d="M1953.3,92c3.2,0,5.9,0.4,8.1,1.2c2.2,0.8,4,2,5.3,3.5c1.3,1.5,2.3,3.3,2.9,5.4c0.6,2.1,0.9,4.4,0.9,6.9v27.7
		c-0.7,0.1-1.6,0.3-2.9,0.5c-1.2,0.2-2.6,0.4-4.1,0.6c-1.5,0.2-3.2,0.3-5,0.5c-1.8,0.1-3.6,0.2-5.3,0.2c-2.5,0-4.8-0.3-6.9-0.8
		c-2.1-0.5-3.9-1.3-5.5-2.4c-1.5-1.1-2.7-2.6-3.6-4.4s-1.3-4-1.3-6.6c0-2.4,0.5-4.6,1.5-6.3c1-1.8,2.3-3.2,4.1-4.3
		c1.7-1.1,3.7-1.9,6-2.4c2.3-0.5,4.7-0.8,7.2-0.8c0.8,0,1.6,0,2.5,0.1c0.9,0.1,1.7,0.2,2.4,0.3c0.8,0.1,1.4,0.3,2,0.4
		c0.6,0.1,1,0.2,1.2,0.3v-2.2c0-1.3-0.1-2.6-0.4-3.9c-0.3-1.3-0.8-2.4-1.5-3.4c-0.7-1-1.8-1.8-3-2.4c-1.3-0.6-2.9-0.9-5-0.9
		c-2.6,0-4.9,0.2-6.9,0.6c-2,0.4-3.4,0.8-4.4,1.2l-0.9-6.6c1-0.5,2.7-0.9,5.1-1.3C1947.9,92.2,1950.5,92,1953.3,92z M1954,131.7
		c1.9,0,3.5,0,5-0.1c1.5-0.1,2.7-0.2,3.6-0.5v-13.2c-0.6-0.3-1.5-0.5-2.8-0.7c-1.3-0.2-2.8-0.3-4.7-0.3c-1.2,0-2.5,0.1-3.8,0.3
		c-1.3,0.2-2.6,0.5-3.7,1.1c-1.1,0.5-2,1.3-2.8,2.2c-0.7,0.9-1.1,2.2-1.1,3.7c0,2.8,0.9,4.8,2.7,5.9
		C1948.4,131.2,1950.9,131.7,1954,131.7z"/>
	<path class="st0" d="M1996.8,138.3c-4.9-0.1-8.4-1.2-10.4-3.2c-2-2-3.1-5.1-3.1-9.3V72.6l7.9-1.4v53.4c0,1.3,0.1,2.4,0.3,3.2
		c0.2,0.9,0.6,1.5,1.1,2c0.5,0.5,1.2,0.9,2,1.2c0.9,0.3,1.9,0.5,3.2,0.6L1996.8,138.3z"/>
</g>
</svg>
