<?xml version="1.0" encoding="utf-8"?>
<!-- Generator: Adobe Illustrator 27.9.4, SVG Export Plug-In . SVG Version: 9.03 Build 54784)  -->
<svg version="1.1" id="Camada_1" xmlns="http://www.w3.org/2000/svg" xmlns:xlink="http://www.w3.org/1999/xlink" x="0px" y="0px"
	 viewBox="0 0 500 460.7" style="enable-background:new 0 0 500 460.7;" xml:space="preserve">
<style type="text/css">
	.st0{fill:#8463FD;}
	.st1{fill:#02D97C;}
	.st2{fill:#FFFFFF;}
</style>
<g>
	<g>
		<g>
			<g>
				<path class="st0" d="M273.5,39.5c-13.6,20.7-21.6,45.4-21.9,72c-70.3,16.6-141.8,29-213.9,37l-31-52.7
					c-19.5-33.2,6.2-74.6,44.6-71.9L273.5,39.5z"/>
			</g>
			<g>
				<path class="st0" d="M306.3,222c-67.7,15.8-136.6,26.7-206.2,32.8L53.8,176c67.7-8,134.6-19.8,200.4-35.3
					C261,173.8,280,202.6,306.3,222z"/>
			</g>
			<g>
				<g>
					<path class="st0" d="M378.3,248.3l-42,89.6c-57.4,11.7-115.8,19-174.6,21.8L116,281.8c77.3-7.4,154-20.7,228.9-39.9
						C355.5,245.4,366.7,247.6,378.3,248.3z"/>
				</g>
				<g>
					<path class="st0" d="M177.9,387.2l29.3,49.9c19.5,33.2,68.2,30.9,84.5-3.9l29.7-63.4C274.1,378.5,226.1,384.3,177.9,387.2z"/>
				</g>
			</g>
		</g>
		<g>
			<circle class="st1" cx="387.4" cy="112.6" r="112.6"/>
		</g>
		<g>
			<g>
				<path class="st2" d="M366.5,176.9c-0.5,0-1-0.1-1.5-0.3c-2.1-0.8-3.2-3.2-2.4-5.3L407.2,54c0.8-2.1,3.2-3.2,5.3-2.4
					c2.1,0.8,3.2,3.2,2.4,5.3l-44.5,117.4C369.7,175.9,368.1,176.9,366.5,176.9z"/>
			</g>
			<g>
				<path class="st2" d="M421.2,146.4c-1.2,0-2.5-0.6-3.3-1.6c-1.4-1.8-1-4.4,0.8-5.7l33.3-24.9l-33.3-24.9
					c-1.8-1.4-2.2-3.9-0.8-5.7c1.4-1.8,3.9-2.2,5.7-0.8l37.7,28.2c1,0.8,1.6,2,1.6,3.3c0,1.3-0.6,2.5-1.6,3.3l-37.7,28.2
					C422.9,146.1,422,146.4,421.2,146.4z"/>
			</g>
			<g>
				<path class="st2" d="M357.6,146.4c-0.8,0-1.6-0.2-2.3-0.7l-40.7-28.2c-1.1-0.8-1.8-2-1.8-3.4s0.7-2.6,1.8-3.4l40.7-28.2
					c1.9-1.3,4.4-0.8,5.7,1c1.3,1.9,0.8,4.4-1,5.7l-35.8,24.8l35.8,24.8c1.9,1.3,2.3,3.8,1,5.7C360.1,145.8,358.9,146.4,357.6,146.4
					z"/>
			</g>
		</g>
	</g>
</g>
</svg>
