<?xml version="1.0" encoding="utf-8"?>
<!-- Generator: Adobe Illustrator 27.9.4, SVG Export Plug-In . SVG Version: 9.03 Build 54784)  -->
<svg version="1.1" id="Camada_1" xmlns="http://www.w3.org/2000/svg" xmlns:xlink="http://www.w3.org/1999/xlink" x="0px" y="0px"
	 viewBox="0 0 1080 106.2" style="enable-background:new 0 0 1080 106.2;" xml:space="preserve">
<style type="text/css">
	.st0{fill:#221D44;}
	.st1{fill:#8463FD;}
	.st2{fill:#02D97C;}
	.st3{fill:none;stroke:#FFFFFF;stroke-width:2;stroke-linecap:round;stroke-linejoin:round;stroke-miterlimit:10;}
	.st4{fill:#7F7F7F;}
	.st5{font-family:'Ubuntu-Regular';}
	.st6{font-size:46.0969px;}
</style>
<g>
	<g>
		<path class="st0" d="M124.6,42c0,2.9,2.4,5.3,5.3,5.3h18.3c7.2,0,13,5.8,13,13s-5.8,13-13,13H117v-7.6h31.3c2.9,0,5.3-2.4,5.3-5.3
			s-2.4-5.3-5.3-5.3H130c-7.2,0-13-5.8-13-13s5.8-13,13-13h30.6v7.6H130C127,36.7,124.6,39,124.6,42z"/>
		<path class="st0" d="M201.3,29H170v7.6h31.3c2.9,0,5.3,2.4,5.3,5.3v5.3h-29.5c-4,0-7.2,3.2-7.2,7.2v11.6c0,4,3.2,7.2,7.2,7.2h24.1
			c7.2,0,13-5.8,13-13V42C214.3,34.8,208.4,29,201.3,29z M201.3,65.7h-23.7V55h29v5.3C206.6,63.3,204.2,65.7,201.3,65.7z"/>
		<path class="st0" d="M224.7,73.3V0h7.6v73.3H224.7z"/>
		<path class="st0" d="M279.9,55c4,0,7.2-3.2,7.2-7.2V36.2c0-4-3.2-7.2-7.2-7.2h-24.1c-7.2,0-13,5.8-13,13v18.3c0,7.2,5.8,13,13,13
			h31.3v-7.6h-31.3c-2.9,0-5.3-2.4-5.3-5.3V55H279.9z M255.8,36.7h23.7v10.7h-29V42C250.5,39,252.8,36.7,255.8,36.7z"/>
		<path class="st0" d="M303.9,42c0,2.9,2.4,5.3,5.3,5.3h18.3c7.2,0,13,5.8,13,13s-5.8,13-13,13H296v-7.6h31.5c2.9,0,5.3-2.4,5.3-5.3
			s-2.4-5.3-5.3-5.3h-18.3c-7.2,0-13-5.8-13-13s5.8-13,13-13h31.3v7.6h-31.3C306.3,36.7,303.9,39,303.9,42z"/>
		<path class="st0" d="M366.7,28h7.6v65.2c0,7.2-5.8,13-13,13h-10.9v-7.6h10.9c2.9,0,5.3-2.4,5.3-5.3V28z"/>
		<path class="st0" d="M429.1,42v18.3c0,7.2-5.8,13-13,13h-18.3c-7.2,0-13-5.8-13-13V42c0-7.2,5.8-13,13-13h18.3
			C423.3,29,429.1,34.8,429.1,42z M421.5,42c0-2.9-2.4-5.3-5.3-5.3h-18.3c-2.9,0-5.3,2.4-5.3,5.3v18.3c0,2.9,2.4,5.3,5.3,5.3h18.3
			c2.9,0,5.3-2.4,5.3-5.3V42z"/>
		<path class="st0" d="M483.4,29v31.3c0,7.2-5.8,13-13,13h-18.3c-7.2,0-13-5.8-13-13V29h7.6v31.3c0,2.9,2.4,5.3,5.3,5.3h18.3
			c2.9,0,5.3-2.4,5.3-5.3V29H483.4z"/>
		<path class="st0" d="M531.3,28.5v7.6h-24.3c-2.9,0-5.3,2.4-5.3,5.3v31.8h-7.6V41.5c0-7.2,5.8-13,13-13H531.3z"/>
		<path class="st0" d="M581.4,42v31.3h-7.6V42c0-2.9-2.4-5.3-5.3-5.3h-18.3c-2.9,0-5.3,2.4-5.3,5.3v31.3h-7.6V42c0-7.2,5.8-13,13-13
			h18.3C575.6,29,581.4,34.8,581.4,42z"/>
		<path class="st0" d="M628.5,55c4,0,7.2-3.2,7.2-7.2V36.2c0-4-3.2-7.2-7.2-7.2h-24.1c-7.2,0-13,5.8-13,13v18.3c0,7.2,5.8,13,13,13
			h31.3v-7.6h-31.3c-2.9,0-5.3-2.4-5.3-5.3V55H628.5z M604.4,36.7h23.7v10.7h-29V42C599.1,39,601.5,36.7,604.4,36.7z"/>
		<path class="st0" d="M682.3,29v19.2c0,2.9-2.4,5.3-5.3,5.3h-18.3c-2.9,0-5.3-2.4-5.3-5.3V29h-7.6v19.2c0,7.2,5.8,13,13,13h5.3
			v13.1h7.6V61.2h5.3c7.2,0,13-5.8,13-13V29H682.3z"/>
		<rect x="366.7" y="12.7" class="st0" width="7.6" height="9.9"/>
		<g>
			<g>
				<path class="st1" d="M52.5,11.8c-2.6,4-4.1,8.7-4.2,13.8c-13.5,3.2-27.2,5.6-41.1,7.1l-6-10.1C-2.5,16.2,2.5,8.2,9.8,8.8
					L52.5,11.8z"/>
				<path class="st1" d="M58.8,46.8c-13,3-26.2,5.1-39.6,6.3L10.3,38c13-1.5,25.8-3.8,38.5-6.8C50.1,37.6,53.8,43.1,58.8,46.8z"/>
				<g>
					<path class="st1" d="M72.7,51.9l-8.1,17.2c-11,2.2-22.2,3.6-33.5,4.2l-8.8-14.9c14.9-1.4,29.6-4,44-7.7
						C68.3,51.3,70.4,51.7,72.7,51.9z"/>
					<path class="st1" d="M34.2,78.5l5.6,9.6c3.7,6.4,13.1,5.9,16.2-0.8l5.7-12.2C52.6,76.9,43.4,78,34.2,78.5z"/>
				</g>
			</g>
		</g>
		<circle class="st2" cx="74.5" cy="26.1" r="21.6"/>
		<g>
			<line class="st3" x1="78.9" y1="14.8" x2="70.4" y2="37.4"/>
			<polyline class="st3" points="80.9,20.7 88.1,26.1 80.9,31.5 			"/>
			<polyline class="st3" points="68.7,31.5 60.9,26.1 68.7,20.7 			"/>
		</g>
	</g>
	<text transform="matrix(1 0 0 1 724.7373 74.2274)" class="st4 st5 st6">Developer Portal</text>
</g>
</svg>
